# xmcd
#
# Track frame offsets:
# 150
# 16158
# 31549
# 48062
# 61880
# 74730
# 93373
# 107823
# 121650
# 137274
# 152826
# 169081
# 185602
# 199314
# 215300
# 230381
# 250194
# 262864
# 277430
# 294034
#
# Disc length: 4111 seconds
#
# Revision: 1
# Processed by: cddbd v1.5.1PL0 Copyright (c) Steve Scherf et al.
# Submitted via: CedeCatalogueitor 2.6.0.4 http://personales.ya.com/cdcatalogueitor
#
DISCID=10100d14
DTITLE=Varios - Top 100 Country CD 4
DYEAR=1900
DGENRE=
TTITLE0=That's The Kind Of Love
TTITLE1=Daddy Laid The Blues On
TTITLE2=I Do
TTITLE3=I Still Wanna Jump Your Bones
TTITLE4=You Make The Moonlight
TTITLE5=Angels Among Us
TTITLE6=Better Than It Used To Be
TTITLE7=My Love Goes On And On
TTITLE8=Daddy's Hand
TTITLE9=Smoke In Her Eyes
TTITLE10=That's The Beat Of A Heart
TTITLE11=Old Enough To Know Better
TTITLE12=Whatever Come First
TTITLE13=Don't Try To Find Me
TTITLE14=Mama Needs Domeone To Hold Her
TTITLE15=Past The Point Of Rescue
TTITLE16=Blue
TTITLE17=If I Have A Nickel
TTITLE18=A Lesson In Leaving
TTITLE19=Confessin' My Love
EXTD=
EXTT0=
EXTT1=
EXTT2=
EXTT3=
EXTT4=
EXTT5=
EXTT6=
EXTT7=
EXTT8=
EXTT9=
EXTT10=
EXTT11=
EXTT12=
EXTT13=
EXTT14=
EXTT15=
EXTT16=
EXTT17=
EXTT18=
EXTT19=
PLAYORDER=
